<?xml version="1.0" encoding="utf-8"?>
<svg version="1.1" id="Layer_1" x="0px" y="0px" width="100%" viewBox="0 0 1080 1080" enable-background="new 0 0 1080 1080" xmlns="http://www.w3.org/2000/svg">
  <path fill="#FF5F01" opacity="1.000000" stroke="none" d="M 423.567 733.659 C 464.369 718.538 501.609 698.979 535.821 674.899 C 541.263 671.067 550.264 668.846 550.358 659.966 C 550.399 656.054 549.452 653.108 546.23 650.263 C 528.08 634.233 514.8 614.512 498.1 597.346 C 490.111 589.132 482.559 581.762 468.871 585.1 C 464.613 586.138 462.778 582.705 460.324 580.026 C 449.501 568.216 440.577 555.022 427.975 544.483 C 417.75 535.934 407.454 530.057 393.792 538.124 C 390.985 539.781 388.735 539.671 386.403 537.454 C 366.846 518.878 343.875 502.889 332.389 478.22 C 326.053 464.608 324.148 449.955 320.477 435.747 C 314.142 411.234 307.251 386.766 303.643 361.776 C 301.664 348.07 304.448 334.368 310.255 321.574 C 322.928 293.657 345.064 272.514 369.973 253.23 C 400.591 229.527 435.001 211.398 471.221 196.203 C 517.066 176.972 564.858 163.318 614.711 154.696 C 658.202 147.174 701.813 145.434 745.608 147.046 C 766.222 147.806 786.983 147.533 807.566 149.923 C 814.304 150.705 816.779 153.325 815.881 159.155 C 815.04 164.606 816.957 167.149 823.491 169.106 C 854.958 178.533 872.886 199.561 881.263 227.938 C 882.994 233.805 884.142 239.868 884.879 245.909 C 886 255.081 884.987 263.64 891.572 272.818 C 898.25 282.124 892.72 294.277 885.269 303.584 C 864.274 329.809 834.487 343.687 801.051 352.148 C 795.999 353.426 791.942 351.997 788.824 347.426 C 781.409 336.551 782.201 326.711 791.915 317.135 C 793.773 315.305 795.377 313.213 796.794 311.076 C 799.512 306.983 798.159 304.643 792.827 304.759 C 774.331 305.165 755.899 306.366 737.457 307.807 C 725.209 308.764 713.037 309.775 700.845 311.339 C 668.679 315.462 638.057 324.102 608.136 335.304 C 562.689 352.32 522.584 377.64 481.838 401.97 C 474.915 406.104 475.011 420.732 481.778 425.083 C 524.408 452.487 567.157 479.739 613.514 501.853 C 639.241 514.126 662.32 529.732 683.505 547.666 C 687.363 550.933 690.04 550.831 693.365 547.841 C 699.209 542.59 702.667 543.222 708.669 549.343 C 734.206 575.393 752.305 604.716 761.178 638.714 C 765.621 655.734 762.637 672.82 760.771 689.673 C 759.761 698.793 760.287 707.985 758.317 717.189 C 755.922 728.373 756.586 740.105 756.036 751.604 C 755.551 761.714 753.133 764.218 744.151 759.757 C 729.744 752.6 724.842 762.85 718.775 769.801 C 702.295 788.677 681.387 802.947 660.504 817.155 C 627.665 839.498 591.561 856.874 554.702 873.074 C 541.717 878.781 529.837 883.052 515.049 876.59 C 508.474 873.718 499.942 871.089 491.306 873.881 C 478.204 878.117 471.782 885.029 471.84 897.523 C 471.864 902.801 470.06 904.797 464.38 906.823 C 428.577 919.598 391.324 927.527 353.995 935.288 C 323.813 941.562 296.978 935.249 273.248 917.388 C 266.391 912.225 258.755 907.74 252.745 901.87 C 244.013 893.341 233.629 888.949 221.424 885.885 C 195.372 879.343 174.373 860.649 176.632 837.51 C 177.48 828.817 174.739 822.683 169.652 816.651 C 162.873 808.612 158.759 799.328 153.595 790.52 C 141.482 769.858 151.104 742.303 166.835 727.275 C 173.652 720.762 180.752 714.517 188.512 708.804 C 194.18 704.629 197.703 705.63 201.882 709.707 C 210.964 718.571 219.708 727.755 229.289 736.15 C 237.696 743.515 246.81 750.274 256.058 756.775 C 268.188 765.305 281.53 766.249 296.87 764.243 C 322.044 760.953 346.807 756.767 371.252 750.38 C 388.857 745.78 405.897 739.912 423.567 733.659 Z" style=""/>
  <path fill="#FF5C01" opacity="1.000000" stroke="none" d="M 851.901 339.163 C 858.943 334.779 865.496 330.828 874 325.701 C 872.154 334.028 874.261 341.448 867.515 347.063 C 862.781 351.004 858.806 355.63 853.104 358.736 C 850.297 360.265 849.104 360.868 846.194 358.814 C 833.716 350.001 833.598 350.141 846.889 342.305 C 848.402 341.412 849.903 340.5 851.901 339.163 Z" style=""/>
  <path opacity="1.000000" stroke="none" d="M 491.718 365.423 C 509.993 353.643 529.968 346.676 551.094 341.766 C 528.184 353.296 505.273 364.827 480.374 377.358 C 482.99 370.781 486.541 367.869 491.718 365.423 Z" style="fill: rgba(0, 0, 0, 0);"/>
  <path opacity="1.000000" stroke="none" d="M 438.697 898.534 C 432.557 900.52 426.904 901.802 421.626 903.876 C 416.65 905.829 413.326 904.738 410.215 900.202 C 423.477 894.925 436.665 889.679 450.035 884.359 C 454.102 894.288 447.983 897.06 438.697 898.534 Z" style="fill: rgba(0, 0, 0, 0);"/>
</svg>